<?xml version="1.0" encoding="utf-8"?>
<!-- Generator: Adobe Illustrator 24.0.2, SVG Export Plug-In . SVG Version: 6.00 Build 0)  -->
<svg version="1.1" id="ACFB_Logo_x2C__RGB" xmlns="http://www.w3.org/2000/svg" xmlns:xlink="http://www.w3.org/1999/xlink" x="0px"
	 y="0px" viewBox="0 0 275.9 88.9" style="enable-background:new 0 0 275.9 88.9;" xml:space="preserve">
<style type="text/css">
	.st0{fill:#F46E21;}
	.st1{fill:#636570;}
	.st2{fill:#FDCA7A;}
	.st3{fill:#FF9600;}
</style>
<g>
	<g>
		<path class="st0" d="M98.9,43.3c2.7,0,5.7,0.9,7.8,2.8l-2.5,4.7c-1.6-1.7-3.4-2.4-5.2-2.4c-3.2,0-5.5,2.2-5.5,5.4
			c0,3.2,2.3,5.4,5.5,5.4c1,0,2.6-0.2,4.3-1.1l1.1,5c-1.6,0.8-3.3,1.2-5.4,1.2c-6,0-10.6-4.6-10.6-10.6
			C88.4,47.8,92.9,43.3,98.9,43.3"/>
		<path class="st0" d="M108.2,53.8c0-5.8,4.2-10.6,11-10.6c6.8,0,10.9,4.8,10.9,10.6s-4.2,10.6-10.9,10.6
			C112.4,64.4,108.2,59.6,108.2,53.8z M124.5,53.8c0-3.1-2-5.5-5.3-5.5c-3.3,0-5.4,2.3-5.4,5.5s2,5.4,5.4,5.4
			C122.5,59.3,124.5,56.9,124.5,53.8z"/>
		<path class="st0" d="M154.7,43.7V64h-5.5V52.7l-5.2,6.8h-0.4l-5.1-6.8V64h-5.5V43.7h4.6l6.3,8.4l6.3-8.4H154.7z"/>
		<path class="st0" d="M179.5,43.7V64H174V52.7l-5.2,6.8h-0.4l-5.1-6.8V64h-5.5V43.7h4.6l6.3,8.4l6.3-8.4H179.5z"/>
		<path class="st0" d="M182.3,55.9V43.7h5.5v12.2c0,2.2,1.5,3.4,3.9,3.4s3.9-1.1,3.9-3.4V43.7h5.5v12.2c0,5.5-3.7,8.5-9.4,8.5
			C186.1,64.4,182.3,61.4,182.3,55.9z"/>
		<path class="st0" d="M223.1,43.7V64h-4.8l-8.8-11.1V64h-5.5V43.7h4.8l8.8,11.1V43.7H223.1z"/>
		<path class="st0" d="M231.7,43.7V64h-5.5V43.7H231.7z"/>
		<path class="st0" d="M253,48.7h-6.5V64H241V48.7h-6.5v-5h12h6.5V48.7z"/>
		<path class="st0" d="M275.9,43.9l-7.7,12.1V64h-5.5v-7.9L255,43.9v-0.3h6l4.4,7.5l4.4-7.5h6V43.9z"/>
		<path class="st0" d="M96.9,72.3v3.6h7.5v5h-7.5v6.6h-5.5V67.2h5.5h8.5v5H96.9z"/>
		<path class="st0" d="M108.1,77.4c0-5.8,4.2-10.6,11-10.6c6.8,0,10.9,4.8,10.9,10.6s-4.2,10.6-10.9,10.6
			C112.3,87.9,108.1,83.1,108.1,77.4z M124.4,77.4c0-3.1-2-5.5-5.3-5.5c-3.3,0-5.4,2.3-5.4,5.5s2,5.4,5.4,5.4
			C122.4,82.8,124.4,80.5,124.4,77.4z"/>
		<path class="st0" d="M132.4,77.4c0-5.8,4.2-10.6,11-10.6c6.8,0,10.9,4.8,10.9,10.6s-4.2,10.6-10.9,10.6
			C136.6,87.9,132.4,83.1,132.4,77.4z M148.7,77.4c0-3.1-2-5.5-5.3-5.5c-3.3,0-5.4,2.3-5.4,5.5s2,5.4,5.4,5.4
			C146.7,82.8,148.7,80.5,148.7,77.4z"/>
		<path class="st0" d="M177.1,77.4c0,5.8-4.6,10.2-10.6,10.2h-8.4h-0.4V67.2h5.5h3.3C172.5,67.2,177.1,71.6,177.1,77.4z M171.6,77.4
			c0-3-2.1-5.1-5.1-5.1h-3.3v10.2h3.3C169.5,82.5,171.6,80.4,171.6,77.4z"/>
	</g>
	<g>
		<path class="st1" d="M111.2,40.2v0.3h-6l-1.2-3.1h-8.6l-1.2,3.1h-6v-0.3l8.5-20h5.9L111.2,40.2z M102.3,32.8l-2.5-6.6l-2.6,6.6
			H102.3z"/>
		<path class="st1" d="M127.9,25.2h-6.5v15.3h-5.5V25.2h-6.5v-5h12h6.5V25.2z"/>
		<path class="st1" d="M146.9,35.4v5h-14.4h-1.8V20.1h5.5v15.3H146.9z"/>
		<path class="st1" d="M171,40.2v0.3h-6l-1.2-3.1h-8.6l-1.2,3.1h-6v-0.3l8.5-20h5.9L171,40.2z M162,32.8l-2.5-6.6l-2.6,6.6H162z"/>
		<path class="st1" d="M192.5,20.1v20.3h-4.8l-8.8-11.1v11.1h-5.5V20.1h4.8l8.8,11.1V20.1H192.5z"/>
		<path class="st1" d="M213.8,25.2h-6.5v15.3h-5.5V25.2h-6.5v-5h12h6.5V25.2z"/>
		<path class="st1" d="M234.8,40.2v0.3h-6l-1.2-3.1H219l-1.2,3.1h-6v-0.3l8.5-20h5.9L234.8,40.2z M225.9,32.8l-2.5-6.6l-2.6,6.6
			H225.9z"/>
		<path class="st1" d="M182.3,67.2h11.8c3.5,0,5.8,2.5,5.8,5.5c0,2.1-1,3.6-2.5,4.4c2.1,0.7,3.5,2.3,3.5,5c0,3.3-2.6,5.5-5.8,5.5
			h-12.9V67.2z M192.3,75.2c1.4,0,2.1-0.6,2.1-1.8s-0.7-1.8-2.1-1.8h-4.5v3.7H192.3z M193.2,83.1c1.4,0,2.2-0.7,2.2-1.8
			c0-1.2-0.8-1.9-2.2-1.9h-5.4v3.7H193.2z"/>
		<path class="st1" d="M224.8,87.2v0.3h-6l-1.2-3.1H209l-1.2,3.1h-6v-0.3l8.5-20h5.9L224.8,87.2z M215.9,79.8l-2.5-6.6l-2.6,6.6
			H215.9z"/>
		<path class="st1" d="M246.4,67.2v20.3h-4.8l-8.8-11.1v11.1h-5.5V67.2h4.8l8.8,11.1V67.2H246.4z"/>
		<path class="st1" d="M268.7,87.3v0.3h-6l-4.9-7.6l-3.3,3.8v3.8h-5.5V67.2h5.5v9l7.6-9h6.5v0.3l-7.3,8.4L268.7,87.3z"/>
	</g>
	<g>
		<path class="st0" d="M22.3,57.8"/>
		<path class="st0" d="M24.6,69.8"/>
		<path class="st0" d="M38.9,83.2c3,0.5,17-10.7,20.1-11.7c1-0.3,2.1-0.7,3.1-1.1c5.2-2.2,6.8-7.6,9.5-12.1c0.9-1.5,1.9-4,2.4-5.5
			c0.2-1.9,0.1-3.7-0.1-5.6C72.4,31,60.4,18.8,47.2,20c-2.9,0.3-5.6,1.1-8,2.5c-2.4-1.4-5.1-2.2-8-2.5C18,18.8,6,31,4.4,47.2
			c-0.2,1.9-0.2,3.8-0.1,5.6c0,0.2,0,0.3,0,0.3c0.3,2.8,0.5,5.6,1.5,8.2c2.1,5.6,7.5,11.6,12.3,15c5.7,4,12,6.3,18.9,6.8
			C37.7,83.2,38.2,83.2,38.9,83.2c-0.4-0.5-1-0.6-1.4-0.8"/>
		<path class="st0" d="M23.2,56.6c0,0,0.1-0.1,0.1-0.1c0.2-0.1,0.4-0.3,0.5-0.4c0,0,0.1,0,0.1-0.1"/>
		<path class="st2" d="M74.1,64.2"/>
		<path class="st3" d="M71.7,57.3c-2.7,4.5-6,8.3-11.2,10.5c-1.1,0.4-2.1,0.8-3.1,1.1c-3.1,0.9-6.1,1.2-9.2,0.7
			c-2.5-0.4-4.9-1.2-7.4-2.6c-3-1.7-5.4-4.1-7.8-6.6c-1.6-1.6-3.1-3.3-4.8-4.7c-1-0.8-2-1.1-2.9-1c-0.1,0-0.2,0-0.4,0
			c-0.1,0-0.2,0-0.2,0.1c-0.2,0.1-0.4,0.1-0.6,0.2c0,0-0.1,0-0.1,0.1c-0.2,0.1-0.4,0.2-0.5,0.4c0,0-0.1,0.1-0.1,0.1
			c-0.1,0.1-0.3,0.3-0.4,0.5c-0.1,0.1-0.1,0.2-0.2,0.3c-0.1,0.2-0.2,0.3-0.3,0.5c-0.1,0.2-0.1,0.3-0.2,0.5c-0.5,1.2-0.7,2.4-0.7,3.6
			c0,1.1,0.1,2.2,0.4,3.4c0.3,1,0.6,2,1.1,3c0,0,0,0.1,0.1,0.1c0.9,1.7,1.9,3.3,3.1,4.8c0.8,1,1.7,1.9,2.6,2.8
			c0.8,0.8,1.7,1.5,2.6,2.2c0.2,0.1,0.3,0.2,0.5,0.4c0,0,0,0,0.1,0c1.2,0.8,2.6,1.6,4,2.3c0.4,0.2,1,0.3,1.4,0.8c-0.6,0-1.2,0-1.7,0
			c-6.9-0.5-13.2-2.9-18.9-6.8C11.8,70.3,8.1,65.9,6,60.3c-1-2.6-1.2-5.4-1.5-8.2c0-0.1,0-0.2,0-0.3c0.1,1.1,0.1,1.1,0,0
			c-0.1-0.7-0.3-2-1.5-1.1c-0.1,0.1-0.2,0.2-0.3,0.3c-0.1,0.1-0.2,0.2-0.2,0.3c0,0,0,0,0,0c-0.1,0.2-0.2,0.4-0.3,0.6
			c-0.1,0.2-0.1,0.3-0.2,0.5c0,0.1-0.1,0.3-0.1,0.4c-0.1,0.3-0.1,0.6-0.2,0.9c0,0,0,0,0,0c-0.1,0.6-0.1,1.2-0.1,1.8
			c0,0.1,0,0.2,0,0.3c0,0,0,0,0,0c0,0.6,0,1.5,0.1,2c0,0-2.2,0.5-1.3,4.6C0.7,65.4,2,68,3.6,70.4c0.6,1,1.3,1.9,2,2.8
			c2.2,2.6,4.5,5,7,6.9c0,0,0.1,0.1,0.1,0.1c0.3,0.2,0.6,0.4,0.9,0.6c3.8,2.6,8,4.6,12.7,5.9c1.8,0.5,3.7,0.7,5.5,1
			c3.3,0.3,6.7,0.2,10.3-0.4c1.5-0.2,3-0.5,4.4-0.9c2.2-0.6,4.3-1.4,6.3-2.4c8.7-3.8,15.5-11.3,18.9-20.6c0.2-0.4,0.3-0.8,0.4-1.3
			c0.1-0.2,0.1-0.4,0.2-0.7c0.2-0.6,0.3-1.1,0.5-1.7c0.1-0.3,0.2-0.7,0.2-1c0.1-0.3,0.1-0.5,0.2-0.8c0.1-0.4,0.2-0.8,0.2-1.2
			c0-0.2,0.1-0.4,0.1-0.5c0.1-0.4,0.1-0.8,0.2-1.2c0.1-0.6,0.2-1.3,0.2-1.9c0-0.2,0-0.5,0.1-0.7c0-0.2,0-0.4,0-0.6
			C73.6,53.3,72.6,55.8,71.7,57.3z"/>
		<g>
			<g>
				<path class="st1" d="M39.3,16.2V0c-4.4,0-7.5,1.1-7.5,7.5C31.8,11.8,35.1,14.7,39.3,16.2z"/>
			</g>
		</g>
	</g>
</g>
</svg>
